<?xml version="1.0" encoding="UTF-8" standalone="no"?>
<svg
   width="55"
   height="48"
   viewBox="0 0 55 48"
   version="1.1"
   id="svg18"
   sodipodi:docname="logo55x48.svg"
   inkscape:version="1.3 (0e150ed6c4, 2023-07-21)"
   xmlns:inkscape="http://www.inkscape.org/namespaces/inkscape"
   xmlns:sodipodi="http://sodipodi.sourceforge.net/DTD/sodipodi-0.dtd"
   xmlns:xlink="http://www.w3.org/1999/xlink"
   xmlns="http://www.w3.org/2000/svg"
   xmlns:svg="http://www.w3.org/2000/svg">
  <sodipodi:namedview
     id="namedview18"
     pagecolor="#ffffff"
     bordercolor="#000000"
     borderopacity="0.25"
     inkscape:showpageshadow="2"
     inkscape:pageopacity="0.0"
     inkscape:pagecheckerboard="true"
     inkscape:deskcolor="#d1d1d1"
     showgrid="true"
     inkscape:zoom="16"
     inkscape:cx="40.78125"
     inkscape:cy="14.90625"
     inkscape:window-width="2560"
     inkscape:window-height="1377"
     inkscape:window-x="2552"
     inkscape:window-y="-8"
     inkscape:window-maximized="1"
     inkscape:current-layer="svg18">
    <inkscape:grid
       id="grid18"
       units="px"
       originx="0"
       originy="0"
       spacingx="0.5"
       spacingy="0.5"
       empcolor="#0099e5"
       empopacity="0.30196078"
       color="#0099e5"
       opacity="0.14901961"
       empspacing="10"
       dotted="false"
       gridanglex="30"
       gridanglez="30"
       visible="true" />
  </sodipodi:namedview>
  <defs
     id="defs13">
    <linearGradient
       gradientUnits="userSpaceOnUse"
       x1="0"
       y1="21.908901"
       x2="43.817806"
       y2="21.908901"
       id="gradient_1"
       gradientTransform="scale(0.91287093,1.0954451)">
      <stop
         offset="0%"
         stop-color="#C965EB"
         id="stop1" />
      <stop
         offset="100%"
         stop-color="#C767E5"
         id="stop2" />
    </linearGradient>
    <linearGradient
       gradientUnits="userSpaceOnUse"
       x1="41.905392"
       y1="48.054245"
       x2="41.905392"
       y2="36.081272"
       id="gradient_2"
       gradientTransform="scale(1.0022576,0.99774746)">
      <stop
         offset="0%"
         stop-color="#7819A2"
         id="stop3" />
      <stop
         offset="100%"
         stop-color="#771AA9"
         id="stop4" />
    </linearGradient>
    <linearGradient
       gradientUnits="userSpaceOnUse"
       x1="36.002998"
       y1="18.002499"
       x2="48.004002"
       y2="18.002499"
       id="gradient_3"
       gradientTransform="scale(0.99991668,1.0000833)">
      <stop
         offset="0%"
         stop-color="#AE4CD5"
         id="stop5" />
      <stop
         offset="100%"
         stop-color="#AC4AD5"
         id="stop6" />
    </linearGradient>
    <linearGradient
       gradientUnits="userSpaceOnUse"
       x1="36.074921"
       y1="29.962646"
       x2="48.099895"
       y2="29.962646"
       id="gradient_4"
       gradientTransform="scale(0.99792315,1.0020812)">
      <stop
         offset="0%"
         stop-color="#912FBD"
         id="stop7" />
      <stop
         offset="100%"
         stop-color="#9332BF"
         id="stop8" />
    </linearGradient>
    <linearGradient
       gradientUnits="userSpaceOnUse"
       x1="0.87900013"
       y1="0.87900102"
       x2="29.120998"
       y2="29.121002"
       id="gradient_5">
      <stop
         offset="0%"
         stop-color="#8521B0"
         id="stop9" />
      <stop
         offset="100%"
         stop-color="#64129A"
         id="stop10" />
    </linearGradient>
    <path
       d="M 48,0 V 0 48 H 0 V 0 Z"
       id="path_1" />
    <path
       d="M 37.5,0 H 2.5 C 1.11875,0 0,1.19333 0,2.66667 V 45.3333 C 0,46.8067 1.11875,48 2.5,48 H 28.75 V 12.004 H 40 V 2.66667 C 40,1.19333 38.8812,0 37.5,0 Z"
       id="path_2" />
    <path
       d="m 0.0281774,12.9832 -0.02505488,8.0176 q -3.072e-4,0.0983 0.01860708,0.1948 0.0189143,0.0964 0.0563203,0.1873 0.0374061,0.0909 0.0918601,0.1728 0.054455,0.0818 0.123857,0.1514 0.069402,0.0697 0.151074,0.1244 0.081672,0.0547 0.172463,0.0924 0.090791,0.0377 0.187198,0.0569 Q 0.900908,22 0.999211,22 H 1.00098 Q 1.09937,22 1.19588,21.9808 1.29238,21.9616 1.38329,21.924 1.47419,21.8863 1.556,21.8316 1.63782,21.777 1.70739,21.7074 1.77697,21.6378 1.83163,21.556 1.8863,21.4742 1.92395,21.3833 1.96161,21.2924 1.9808,21.1959 2,21.0994 2,21.001 V 15 l 5.70097,6.6511 q 0.07034,0.0821 0.15661,0.1472 0.08626,0.0651 0.18446,0.1103 0.09819,0.0452 0.20378,0.0683 Q 8.3514,22 8.45949,22 H 9.00098 Q 9.09937,22 9.19588,21.9808 9.29238,21.9616 9.38329,21.924 9.47419,21.8863 9.556,21.8316 9.63782,21.777 9.70739,21.7074 9.77697,21.6378 9.83163,21.556 9.8863,21.4742 9.92395,21.3833 9.96161,21.2924 9.9808,21.1959 10,21.0994 10,21.001 V 12.999 Q 10,12.9006 9.9808,12.8041 9.96161,12.7076 9.92395,12.6167 9.8863,12.5258 9.83163,12.444 9.77697,12.3622 9.70739,12.2926 9.63782,12.223 9.556,12.1684 9.47419,12.1137 9.38329,12.076 9.29238,12.0384 9.19588,12.0192 9.09937,12 9.00098,12 H 8.99902 Q 8.90063,12 8.80412,12.0192 8.70762,12.0384 8.61671,12.076 8.52581,12.1137 8.444,12.1684 8.36218,12.223 8.29261,12.2926 8.22303,12.3622 8.16836,12.444 8.1137,12.5258 8.07605,12.6167 8.03839,12.7076 8.0192,12.8041 8,12.9006 8,12.999 V 19 L 2.29903,12.3489 Q 2.22869,12.2668 2.14242,12.2017 2.05616,12.1366 1.95796,12.0914 1.85977,12.0462 1.75418,12.0231 1.6486,12 1.54051,12 H 1.0145 q -0.09695,0 -0.192044,0.0189 -0.095095,0.0189 -0.184695,0.0559 -0.089599,0.037 -0.170273,0.0908 -0.080675,0.0538 -0.149336,0.1222 -0.068661,0.0684 -0.122681,0.149 -0.05402,0.0805 -0.091332,0.1699 -0.0373106,0.0895 -0.0564847,0.1846 -0.019174,0.095 -0.0194769,0.1919 z"
       id="path_3" />
    <path
       d="m 12,17 c 0,-2.7614 2.2386,-5 5,-5 2.7614,0 5,2.2386 5,5 0,2.7614 -2.2386,5 -5,5 -2.7614,0 -5,-2.2386 -5,-5 z"
       id="path_4" />
    <path
       d="m 12.999,0 h 8.002 q 0.0984,0 0.1949,0.019196 0.0965,0.0191959 0.1874,0.0568501 0.0909,0.0376539 0.1727,0.0923199 0.0818,0.054665 0.1514,0.124241 0.0696,0.069576 0.1242,0.151389 0.0547,0.081812 0.0924,0.172718 0.0376,0.090905 0.0568,0.18741 Q 22,0.900628 22,0.999023 V 1.00098 Q 22,1.09937 21.9808,1.19588 21.9616,1.29238 21.924,1.38329 21.8863,1.47419 21.8316,1.556 21.777,1.63782 21.7074,1.70739 21.6378,1.77697 21.556,1.83163 21.4742,1.8863 21.3833,1.92395 21.2924,1.96161 21.1959,1.9808 21.0994,2 21.001,2 H 18 v 6 h 3.001 q 0.0984,0 0.1949,0.0192 0.0965,0.01919 0.1874,0.05685 0.0909,0.03765 0.1727,0.09232 0.0818,0.05466 0.1514,0.12424 0.0696,0.06958 0.1242,0.15139 0.0547,0.08181 0.0924,0.17272 0.0376,0.0909 0.0568,0.18741 Q 22,8.90063 22,8.99903 v 0.00195 q 0,0.09839 -0.0192,0.1949 -0.0192,0.0965 -0.0568,0.18741 -0.0377,0.0909 -0.0924,0.17272 Q 21.777,9.63782 21.7074,9.7074 21.6378,9.77697 21.556,9.83164 21.4742,9.8863 21.3833,9.92396 21.2924,9.96161 21.1959,9.98081 21.0994,10 21.001,10 H 12.999 Q 12.9006,10 12.8041,9.98081 12.7076,9.96161 12.6167,9.92395 12.5258,9.8863 12.444,9.83164 12.3622,9.77697 12.2926,9.70739 12.223,9.63782 12.1684,9.556 12.1137,9.47419 12.076,9.38329 12.0384,9.29238 12.0192,9.19588 12,9.09937 12,9.00098 V 8.99903 Q 12,8.90063 12.0192,8.80412 12.0384,8.70762 12.076,8.61671 12.1137,8.52581 12.1684,8.444 12.223,8.36218 12.2926,8.29261 12.3622,8.22303 12.444,8.16837 12.5258,8.1137 12.6167,8.07605 12.7076,8.03839 12.8041,8.0192 12.9006,8 12.999,8 H 16 V 2 H 12.999 Q 12.9006,2 12.8041,1.9808 12.7076,1.96161 12.6167,1.92395 12.5258,1.8863 12.444,1.83163 12.3622,1.77697 12.2926,1.70739 12.223,1.63782 12.1684,1.556 12.1137,1.47419 12.076,1.38329 12.0384,1.29238 12.0192,1.19588 12,1.09937 12,1.00098 V 0.999023 Q 12,0.900628 12.0192,0.804124 12.0384,0.707619 12.076,0.616714 12.1137,0.525808 12.1684,0.443996 12.223,0.362183 12.2926,0.292607 12.3622,0.223031 12.444,0.168366 12.5258,0.1137 12.6167,0.0760461 12.7076,0.0383919 12.8041,0.019196 12.9006,0 12.999,0 Z"
       id="path_5" />
    <clipPath
       id="clip_1">
      <use
         xlink:href="#path_1"
         clip-rule="evenodd"
         fill-rule="evenodd"
         id="use10" />
    </clipPath>
    <clipPath
       id="clip_2">
      <use
         xlink:href="#path_2"
         clip-rule="evenodd"
         fill-rule="evenodd"
         id="use11" />
    </clipPath>
    <clipPath
       id="clip_3">
      <use
         xlink:href="#path_3"
         id="use12" />
    </clipPath>
    <clipPath
       id="clip_4">
      <use
         xlink:href="#path_4"
         id="use13" />
    </clipPath>
  </defs>
  <g
     id="Linq to OneNote V2 Copy">
    <path
       d="M 48,0 V 0 48 H 0 V 0 Z"
       id="Linq-to-OneNote-V2-Copy"
       fill="none"
       stroke="none" />
    <g
       id="Shape-+-Shape-+-Shape-Mask"
       transform="translate(8)"
       clip-path="url(#clip_1)">
      <path
         d="M 37.5,0 H 2.5 C 1.11875,0 0,1.19333 0,2.66667 V 45.3333 C 0,46.8067 1.11875,48 2.5,48 H 28.75 V 12.004 H 40 V 2.66667 C 40,1.19333 38.8812,0 37.5,0 Z"
         id="Mask"
         fill="url(#gradient_1)"
         stroke="none"
         style="fill:url(#gradient_1)" />
      <g
         clip-path="url(#clip_2)"
         id="g13">
        <path
           d="M 18.426762,7 H 0 V 41 H 18.426762 C 22.057142,41 25,38.665294 25,35.785253 V 12.214747 C 25,9.3346695 22.057142,7 18.426762,7 Z"
           id="3"
           fill="#000000"
           fill-opacity="0.05"
           stroke="none"
           style="stroke-width:0.832993" />
        <path
           d="M 18.636805,40 H 0 V 7.334 h 18.636805 c 3.1459,0 5.695195,2.01326 5.695195,4.497759 V 35.502263 C 24.3303,37.986777 21.780887,40 18.636805,40 Z"
           id="2"
           fill="#000000"
           fill-opacity="0.07"
           stroke="none"
           style="stroke-width:0.834684" />
        <path
           d="M 18.882748,39 H 0 V 7.667 h 18.882748 c 2.642025,0 4.783251,1.6832021 4.783251,3.760019 V 35.239966 C 23.667899,37.316855 21.524773,39 18.882748,39 Z"
           id="1"
           fill="#000000"
           fill-opacity="0.09"
           stroke="none"
           style="stroke-width:0.836439" />
      </g>
    </g>
    <path
       d="m 36,36 v 11.946 h 9.3333 C 46.8067,47.946 48,46.7509 48,45.2753 v -9.274 z"
       id="Shape"
       fill="url(#gradient_2)"
       stroke="none"
       clip-path="url(#clip_1)"
       style="fill:url(#gradient_2)" />
    <path
       d="M 36,12.003 H 48 V 24.005 H 36 Z"
       id="path13"
       fill="url(#gradient_3)"
       stroke="none"
       clip-path="url(#clip_1)"
       style="fill:url(#gradient_3)" />
    <path
       d="M 36,24 H 48 V 36.05 H 36 Z"
       id="path14"
       fill="url(#gradient_4)"
       stroke="none"
       clip-path="url(#clip_1)"
       style="fill:url(#gradient_4)" />
    <g
       id="Group"
       transform="translate(1,8)"
       clip-path="url(#clip_1)">
      <path
         d="M 27,30 H 3 C 1.3425,30 0,28.6575 0,27 V 3 C 0,1.3425 1.3425,0 3,0 h 24 c 1.6575,0 3,1.3425 3,3 v 24 c 0,1.6575 -1.3425,3 -3,3 z"
         id="Shape-3"
         fill="url(#gradient_5)"
         stroke="none"
         style="display:inline;fill:url(#gradient_5)"
         sodipodi:nodetypes="sssssssss" />
    </g>
    <g
       id="g18"
       transform="translate(5,12)"
       clip-path="url(#clip_1)">
      <path
         d="m 17,17 4,4"
         id="Line-2-Copy"
         fill="none"
         fill-rule="evenodd"
         stroke="#ffffff"
         stroke-width="2"
         stroke-linecap="round" />
      <g
         id="Vector-8-Copy">
        <g
           clip-path="url(#clip_3)"
           id="g14">
          <use
             xlink:href="#path_3"
             fill="none"
             stroke="#ffffff"
             stroke-width="4"
             id="use14" />
        </g>
      </g>
      <g
         id="Oval-2-Copy">
        <use
           stroke="none"
           fill="#ff2222"
           fill-opacity="0"
           xlink:href="#path_4"
           fill-rule="evenodd"
           id="use15" />
        <g
           clip-path="url(#clip_4)"
           id="g16">
          <use
             xlink:href="#path_4"
             fill="none"
             stroke="#ffffff"
             stroke-width="4"
             id="use16" />
        </g>
      </g>
      <g
         id="Vector-6-Copy">
        <use
           xlink:href="#path_5"
           fill="none"
           stroke="#ffffff"
           stroke-width="0"
           id="use17" />
        <use
           stroke="none"
           fill="#ffffff"
           xlink:href="#path_5"
           fill-rule="evenodd"
           id="use18" />
      </g>
      <path
         d="M 1,1 V 9 H 9"
         id="Vector-5-Copy"
         fill="none"
         fill-rule="evenodd"
         stroke="#ffffff"
         stroke-width="2"
         stroke-linecap="round"
         stroke-linejoin="round" />
    </g>
  </g>
</svg>
