<?xml version="1.0" encoding="utf-8"?>
<svg width="32px" height="32px" viewBox="0 0 32 32" version="1.1" xmlns:xlink="http://www.w3.org/1999/xlink" xmlns="http://www.w3.org/2000/svg">
  <defs>
    <linearGradient gradientUnits="objectBoundingBox" x1="0" y1="0.5" x2="1" y2="0.5" id="gradient_1">
      <stop offset="0%" stop-color="#C965EB" />
      <stop offset="100%" stop-color="#C767E5" />
    </linearGradient>
    <linearGradient gradientUnits="objectBoundingBox" x1="0" y1="0.49999988" x2="1" y2="0.49999988" id="gradient_2">
      <stop offset="0%" stop-color="#AE4CD5" />
      <stop offset="100%" stop-color="#AC4AD5" />
    </linearGradient>
    <linearGradient gradientUnits="objectBoundingBox" x1="0" y1="0.50000024" x2="1" y2="0.50000024" id="gradient_3">
      <stop offset="0%" stop-color="#912FBD" />
      <stop offset="100%" stop-color="#9332BF" />
    </linearGradient>
    <linearGradient gradientUnits="objectBoundingBox" x1="0.5" y1="1" x2="0.5" y2="0" id="gradient_4">
      <stop offset="0%" stop-color="#7819A2" />
      <stop offset="100%" stop-color="#771AA9" />
    </linearGradient>
    <path d="M32 0L32 0L32 32L0 32L0 0L32 0Z" id="path_1" />
    <path d="M17.999 5L26.001 5Q26.0994 5 26.1959 5.0192Q26.2924 5.03839 26.3833 5.07605Q26.4742 5.1137 26.556 5.16837Q26.6378 5.22303 26.7074 5.29261Q26.777 5.36218 26.8316 5.44399Q26.8863 5.52581 26.924 5.61671Q26.9616 5.70762 26.9808 5.80412Q27 5.90063 27 5.99902L27 6.00098Q27 6.09937 26.9808 6.19588Q26.9616 6.29238 26.924 6.38329Q26.8863 6.47419 26.8316 6.556Q26.777 6.63782 26.7074 6.70739Q26.6378 6.77697 26.556 6.83163Q26.4742 6.8863 26.3833 6.92395Q26.2924 6.96161 26.1959 6.9808Q26.0994 7 26.001 7L23 7L23 13L26.001 13Q26.0994 13 26.1959 13.0192Q26.2924 13.0384 26.3833 13.076Q26.4742 13.1137 26.556 13.1684Q26.6378 13.223 26.7074 13.2926Q26.777 13.3622 26.8316 13.444Q26.8863 13.5258 26.924 13.6167Q26.9616 13.7076 26.9808 13.8041Q27 13.9006 27 13.999L27 14.001Q27 14.0994 26.9808 14.1959Q26.9616 14.2924 26.924 14.3833Q26.8863 14.4742 26.8316 14.556Q26.777 14.6378 26.7074 14.7074Q26.6378 14.777 26.556 14.8316Q26.4742 14.8863 26.3833 14.924Q26.2924 14.9616 26.1959 14.9808Q26.0994 15 26.001 15L17.999 15Q17.9006 15 17.8041 14.9808Q17.7076 14.9616 17.6167 14.924Q17.5258 14.8863 17.444 14.8316Q17.3622 14.777 17.2926 14.7074Q17.223 14.6378 17.1684 14.556Q17.1137 14.4742 17.076 14.3833Q17.0384 14.2924 17.0192 14.1959Q17 14.0994 17 14.001L17 13.999Q17 13.9006 17.0192 13.8041Q17.0384 13.7076 17.076 13.6167Q17.1137 13.5258 17.1684 13.444Q17.223 13.3622 17.2926 13.2926Q17.3622 13.223 17.444 13.1684Q17.5258 13.1137 17.6167 13.076Q17.7076 13.0384 17.8041 13.0192Q17.9006 13 17.999 13L21 13L21 7L17.999 7Q17.9006 7 17.8041 6.9808Q17.7076 6.96161 17.6167 6.92395Q17.5258 6.8863 17.444 6.83163Q17.3622 6.77697 17.2926 6.70739Q17.223 6.63782 17.1684 6.556Q17.1137 6.47419 17.076 6.38329Q17.0384 6.29238 17.0192 6.19588Q17 6.09937 17 6.00098L17 5.99902Q17 5.90063 17.0192 5.80412Q17.0384 5.70762 17.076 5.61671Q17.1137 5.52581 17.1684 5.44399Q17.223 5.36218 17.2926 5.29261Q17.3622 5.22303 17.444 5.16837Q17.5258 5.1137 17.6167 5.07605Q17.7076 5.03839 17.8041 5.0192Q17.9006 5 17.999 5Z" id="path_2" />
    <path d="M17 22C17 19.2386 19.2386 17 22 17C24.7614 17 27 19.2386 27 22C27 24.7614 24.7614 27 22 27C19.2386 27 17 24.7614 17 22Z" id="path_3" />
    <path d="M5.02818 17.9832L5.00312 26.0008Q5.00281 26.0991 5.02173 26.1956Q5.04064 26.292 5.07805 26.3829Q5.11546 26.4738 5.16991 26.5557Q5.22436 26.6375 5.29377 26.7071Q5.36317 26.7768 5.44484 26.8315Q5.52651 26.8862 5.6173 26.9239Q5.70809 26.9616 5.8045 26.9808Q5.90091 27 5.99921 27L6.00098 27Q6.09937 27 6.19588 26.9808Q6.29238 26.9616 6.38329 26.9239Q6.47419 26.8863 6.556 26.8316Q6.63782 26.777 6.70739 26.7074Q6.77697 26.6378 6.83163 26.556Q6.8863 26.4742 6.92395 26.3833Q6.96161 26.2924 6.9808 26.1959Q7 26.0994 7 26.001L7 20L12.701 26.6511Q12.7713 26.7332 12.8576 26.7983Q12.9438 26.8634 13.042 26.9086Q13.1402 26.9538 13.2458 26.9769Q13.3514 27 13.4595 27L14.001 27Q14.0994 27 14.1959 26.9808Q14.2924 26.9616 14.3833 26.924Q14.4742 26.8863 14.556 26.8316Q14.6378 26.777 14.7074 26.7074Q14.777 26.6378 14.8316 26.556Q14.8863 26.4742 14.924 26.3833Q14.9616 26.2924 14.9808 26.1959Q15 26.0994 15 26.001L15 17.999Q15 17.9006 14.9808 17.8041Q14.9616 17.7076 14.924 17.6167Q14.8863 17.5258 14.8316 17.444Q14.777 17.3622 14.7074 17.2926Q14.6378 17.223 14.556 17.1684Q14.4742 17.1137 14.3833 17.076Q14.2924 17.0384 14.1959 17.0192Q14.0994 17 14.001 17L13.999 17Q13.9006 17 13.8041 17.0192Q13.7076 17.0384 13.6167 17.076Q13.5258 17.1137 13.444 17.1684Q13.3622 17.223 13.2926 17.2926Q13.223 17.3622 13.1684 17.444Q13.1137 17.5258 13.076 17.6167Q13.0384 17.7076 13.0192 17.8041Q13 17.9006 13 17.999L13 24L7.29903 17.3489Q7.22869 17.2668 7.14242 17.2017Q7.05616 17.1366 6.95796 17.0914Q6.85977 17.0462 6.75418 17.0231Q6.6486 17 6.54051 17L6.0145 17Q5.91755 17 5.82246 17.0189Q5.72736 17.0378 5.63776 17.0748Q5.54816 17.1118 5.46749 17.1656Q5.38681 17.2194 5.31815 17.2878Q5.24949 17.3562 5.19547 17.4368Q5.14145 17.5173 5.10414 17.6067Q5.06683 17.6962 5.04765 17.7913Q5.02848 17.8863 5.02818 17.9832Z" id="path_4" />
    <clipPath id="clip_1">
      <use xlink:href="#path_1" clip-rule="evenodd" fill-rule="evenodd" />
    </clipPath>
    <clipPath id="clip_2">
      <use xlink:href="#path_3" />
    </clipPath>
    <clipPath id="clip_3">
      <use xlink:href="#path_4" />
    </clipPath>
  </defs>
  <g id="Favicon 2">
    <path d="M32 0L32 0L32 32L0 32L0 0L32 0Z" id="Favicon-2" fill="none" stroke="none" />
    <path d="M28.0018 0L3.99805 0Q3.80164 0 3.60617 0.0192517Q3.41071 0.0385034 3.21807 0.0768214Q3.02543 0.115139 2.83748 0.172155Q2.64952 0.22917 2.46806 0.304333Q2.2866 0.379497 2.11338 0.472085Q1.94016 0.564672 1.77685 0.673793Q1.61354 0.782913 1.46171 0.907515Q1.30989 1.03212 1.171 1.171Q1.03212 1.30989 0.907516 1.46171Q0.782914 1.61354 0.673793 1.77685Q0.564673 1.94016 0.472085 2.11338Q0.379497 2.2866 0.304334 2.46806Q0.229171 2.64952 0.172155 2.83748Q0.11514 3.02543 0.0768223 3.21807Q0.0385043 3.41071 0.0192527 3.60617Q1.0533e-06 3.80164 1.10772e-06 3.99805L7.75834e-06 28.002Q7.81276e-06 28.1984 0.0192595 28.3938Q0.0385113 28.5893 0.0768293 28.7819Q0.115147 28.9746 0.172163 29.1625Q0.229178 29.3505 0.304341 29.5319Q0.379505 29.7134 0.472092 29.8866Q0.56468 30.0598 0.6738 30.2232Q0.782921 30.3865 0.907523 30.5383Q1.03213 30.6901 1.17101 30.829Q1.30989 30.9679 1.46172 31.0925Q1.61355 31.2171 1.77686 31.3262Q1.94017 31.4353 2.11339 31.5279Q2.28661 31.6205 2.46807 31.6957Q2.64953 31.7708 2.83748 31.8278Q3.02544 31.8849 3.21807 31.9232Q3.41071 31.9615 3.60618 31.9807Q3.80164 32 3.99805 32L28.0018 32Q28.1982 32 28.3937 31.9807Q28.5891 31.9615 28.7818 31.9232Q28.9744 31.8849 29.1624 31.8278Q29.3503 31.7708 29.5318 31.6957Q29.7132 31.6205 29.8865 31.5279Q30.0597 31.4353 30.223 31.3262Q30.3863 31.2171 30.5381 31.0925Q30.69 30.9679 30.8288 30.829Q30.9677 30.6901 31.0923 30.5383Q31.2169 30.3865 31.3261 30.2231Q31.4352 30.0598 31.5278 29.8866Q31.6203 29.7134 31.6955 29.5319Q31.7707 29.3505 31.8277 29.1625Q31.8847 28.9746 31.923 28.7819Q31.9613 28.5893 31.9806 28.3938Q31.9998 28.1984 31.9998 28.002L31.9998 3.99805Q31.9998 3.80164 31.9806 3.60617Q31.9613 3.4107 31.923 3.21807Q31.8847 3.02543 31.8277 2.83748Q31.7707 2.64952 31.6955 2.46806Q31.6203 2.2866 31.5278 2.11338Q31.4352 1.94016 31.326 1.77685Q31.2169 1.61354 31.0923 1.46171Q30.9677 1.30988 30.8288 1.171Q30.69 1.03212 30.5381 0.907515Q30.3863 0.782913 30.223 0.673792Q30.0597 0.564672 29.8865 0.472084Q29.7132 0.379497 29.5318 0.304333Q29.3503 0.22917 29.1624 0.172155Q28.9744 0.115139 28.7818 0.0768213Q28.5891 0.0385034 28.3937 0.0192517Q28.1982 0 28.0018 0Z" id="Shape-7" fill="url(#gradient_1)" stroke="none" clip-path="url(#clip_1)" />
    <path d="M24 8L32 8L32 16L24 16L24 8L24 8Z" id="Shape-3" fill="url(#gradient_2)" stroke="none" clip-path="url(#clip_1)" />
    <path d="M24 16L32 16L32 24L24 24L24 16L24 16Z" id="Shape-3" fill="url(#gradient_3)" stroke="none" clip-path="url(#clip_1)" />
    <path d="M24 24L24 32L32 32L32 24.0009L24 24L24 24L24 24Z" id="Shape-3" fill="url(#gradient_4)" stroke="none" clip-path="url(#clip_1)" />
    <path d="M6 6L6 14L14 14" id="Vector-5" fill="none" fill-rule="evenodd" stroke="#FFFFFF" stroke-width="2" stroke-linecap="round" stroke-linejoin="round" clip-path="url(#clip_1)" />
    <g id="Vector-6" clip-path="url(#clip_1)">
      <use xlink:href="#path_2" fill="none" stroke="#FFFFFF" stroke-width="0" />
      <use stroke="none" fill="#FFFFFF" xlink:href="#path_2" fill-rule="evenodd" />
    </g>
    <g id="Oval-2" clip-path="url(#clip_1)">
      <use stroke="none" fill="#FF2222" fill-opacity="0" xlink:href="#path_3" fill-rule="evenodd" />
      <g clip-path="url(#clip_2)">
        <use xlink:href="#path_3" fill="none" stroke="#FFFFFF" stroke-width="4" />
      </g>
    </g>
    <path d="M22 22L26 26" id="Line-2" fill="none" fill-rule="evenodd" stroke="#FFFFFF" stroke-width="2" stroke-linecap="round" clip-path="url(#clip_1)" />
    <g id="Vector-8" clip-path="url(#clip_1)">
      <g clip-path="url(#clip_3)">
        <use xlink:href="#path_4" fill="none" stroke="#FFFFFF" stroke-width="4" />
      </g>
    </g>
  </g>
</svg>